<svg width="153" height="19" viewBox="0 0 153 19" fill="none" xmlns="http://www.w3.org/2000/svg">
<path fill-rule="evenodd" clip-rule="evenodd" d="M8.28949 14.0413L4.0662 16.3442C3.70048 16.5436 3.26557 16.2346 3.33353 15.8236L4.14475 10.918L0.69181 7.42705C0.404191 7.13627 0.568347 6.64197 0.972777 6.58102L5.7279 5.86437L7.838 1.42986C8.01892 1.04964 8.56006 1.04964 8.74099 1.42986L10.8511 5.86437L15.6062 6.58102C16.0106 6.64197 16.1748 7.13627 15.8872 7.42705L12.4342 10.918L13.2455 15.8236C13.3134 16.2346 12.8785 16.5436 12.5128 16.3442L8.28949 14.0413Z" fill="#F59914"/>
<path fill-rule="evenodd" clip-rule="evenodd" d="M30.395 14.0413L26.1717 16.3442C25.806 16.5436 25.371 16.2346 25.439 15.8236L26.2502 10.918L22.7973 7.42705C22.5097 7.13627 22.6738 6.64197 23.0782 6.58102L27.8334 5.86437L29.9435 1.42986C30.1244 1.04964 30.6655 1.04964 30.8465 1.42986L32.9566 5.86437L37.7117 6.58102C38.1161 6.64197 38.2803 7.13627 37.9926 7.42705L34.5397 10.918L35.3509 15.8236C35.4189 16.2346 34.984 16.5436 34.6183 16.3442L30.395 14.0413Z" fill="#F59914"/>
<path fill-rule="evenodd" clip-rule="evenodd" d="M52.5007 14.5218L48.2774 16.8246C47.9117 17.024 47.4768 16.715 47.5447 16.3041L48.3559 11.3985L44.903 7.90752C44.6154 7.61674 44.7795 7.12244 45.184 7.06149L49.9391 6.34484L52.0492 1.91033C52.2301 1.53011 52.7712 1.53011 52.9522 1.91033L55.0623 6.34484L59.8174 7.06149C60.2218 7.12244 60.386 7.61674 60.0984 7.90752L56.6454 11.3985L57.4566 16.3041C57.5246 16.715 57.0897 17.024 56.724 16.8246L52.5007 14.5218Z" fill="#F59914"/>
<path fill-rule="evenodd" clip-rule="evenodd" d="M74.6049 14.0413L70.3816 16.3442C70.0159 16.5436 69.581 16.2346 69.649 15.8236L70.4602 10.918L67.0072 7.42705C66.7196 7.13627 66.8838 6.64197 67.2882 6.58102L72.0433 5.86437L74.1534 1.42986C74.3344 1.04964 74.8755 1.04964 75.0564 1.42986L77.1665 5.86437L81.9216 6.58102C82.3261 6.64197 82.4902 7.13627 82.2026 7.42705L78.7497 10.918L79.5609 15.8236C79.6288 16.2346 79.1939 16.5436 78.8282 16.3442L74.6049 14.0413Z" fill="#F59914"/>
<path fill-rule="evenodd" clip-rule="evenodd" d="M96.7104 14.0413L92.4871 16.3442C92.1214 16.5436 91.6865 16.2346 91.7544 15.8236L92.5656 10.918L89.1127 7.42705C88.8251 7.13627 88.9892 6.64197 89.3937 6.58102L94.1488 5.86437L96.2589 1.42986C96.4398 1.04964 96.981 1.04964 97.1619 1.42986L99.272 5.86437L104.027 6.58102C104.432 6.64197 104.596 7.13627 104.308 7.42705L100.855 10.918L101.666 15.8236C101.734 16.2346 101.299 16.5436 100.934 16.3442L96.7104 14.0413Z" stroke="#9B9B9B"/>
<path d="M120.64 12.424V11.32L126.256 3.544H128V11.16H129.6V12.424H128V15H126.56V12.424H120.64ZM126.624 5.064L122.32 11.16H126.624V5.064ZM131.759 15.096C131.481 15.096 131.247 15 131.055 14.808C130.863 14.616 130.767 14.3813 130.767 14.104C130.767 13.8267 130.863 13.592 131.055 13.4C131.247 13.208 131.481 13.112 131.759 13.112C132.025 13.112 132.249 13.208 132.431 13.4C132.623 13.592 132.719 13.8267 132.719 14.104C132.719 14.3813 132.623 14.616 132.431 14.808C132.249 15 132.025 15.096 131.759 15.096ZM136.526 8.984C135.929 8.74933 135.47 8.408 135.15 7.96C134.83 7.512 134.67 6.968 134.67 6.328C134.67 5.752 134.814 5.23467 135.102 4.776C135.39 4.30667 135.817 3.93867 136.382 3.672C136.958 3.39467 137.651 3.256 138.462 3.256C139.273 3.256 139.961 3.39467 140.526 3.672C141.102 3.93867 141.534 4.30667 141.822 4.776C142.121 5.23467 142.27 5.752 142.27 6.328C142.27 6.94667 142.105 7.49067 141.774 7.96C141.443 8.41867 140.99 8.76 140.414 8.984C141.075 9.18667 141.598 9.544 141.982 10.056C142.377 10.5573 142.574 11.1653 142.574 11.88C142.574 12.5733 142.403 13.1813 142.062 13.704C141.721 14.216 141.235 14.616 140.606 14.904C139.987 15.1813 139.273 15.32 138.462 15.32C137.651 15.32 136.937 15.1813 136.318 14.904C135.71 14.616 135.235 14.216 134.894 13.704C134.553 13.1813 134.382 12.5733 134.382 11.88C134.382 11.1653 134.574 10.552 134.958 10.04C135.342 9.528 135.865 9.176 136.526 8.984ZM140.862 6.504C140.862 5.85333 140.649 5.352 140.222 5C139.795 4.648 139.209 4.472 138.462 4.472C137.726 4.472 137.145 4.648 136.718 5C136.291 5.352 136.078 5.85867 136.078 6.52C136.078 7.11733 136.297 7.59733 136.734 7.96C137.182 8.32267 137.758 8.504 138.462 8.504C139.177 8.504 139.753 8.32267 140.19 7.96C140.638 7.58667 140.862 7.10133 140.862 6.504ZM138.462 9.624C137.673 9.624 137.027 9.81067 136.526 10.184C136.025 10.5467 135.774 11.096 135.774 11.832C135.774 12.5147 136.014 13.064 136.494 13.48C136.985 13.896 137.641 14.104 138.462 14.104C139.283 14.104 139.934 13.896 140.414 13.48C140.894 13.064 141.134 12.5147 141.134 11.832C141.134 11.1173 140.889 10.5733 140.398 10.2C139.907 9.816 139.262 9.624 138.462 9.624ZM144.476 6.344C144.55 5.36267 144.929 4.59467 145.612 4.04C146.294 3.48533 147.18 3.208 148.268 3.208C148.993 3.208 149.617 3.34133 150.14 3.608C150.673 3.864 151.073 4.216 151.34 4.664C151.617 5.112 151.756 5.61867 151.756 6.184C151.756 6.84533 151.564 7.416 151.18 7.896C150.806 8.376 150.316 8.68533 149.708 8.824V8.904C150.401 9.07467 150.95 9.41067 151.356 9.912C151.761 10.4133 151.964 11.0693 151.964 11.88C151.964 12.488 151.825 13.0373 151.548 13.528C151.27 14.008 150.854 14.3867 150.3 14.664C149.745 14.9413 149.078 15.08 148.3 15.08C147.169 15.08 146.241 14.7867 145.516 14.2C144.79 13.6027 144.385 12.76 144.3 11.672H145.708C145.782 12.312 146.044 12.8347 146.492 13.24C146.94 13.6453 147.537 13.848 148.284 13.848C149.03 13.848 149.596 13.656 149.98 13.272C150.374 12.8773 150.572 12.3707 150.572 11.752C150.572 10.952 150.305 10.376 149.772 10.024C149.238 9.672 148.433 9.496 147.356 9.496H146.988V8.28H147.372C148.353 8.26933 149.094 8.10933 149.596 7.8C150.097 7.48 150.348 6.98933 150.348 6.328C150.348 5.76267 150.161 5.30933 149.788 4.968C149.425 4.62667 148.902 4.456 148.22 4.456C147.558 4.456 147.025 4.62667 146.62 4.968C146.214 5.30933 145.974 5.768 145.9 6.344H144.476Z" fill="black"/>
</svg>
